<?xml version="1.0" encoding="utf-8"?>
<!-- Generator: Adobe Illustrator 25.3.1, SVG Export Plug-In . SVG Version: 6.00 Build 0)  -->
<svg version="1.1" id="Layer_1" xmlns="http://www.w3.org/2000/svg" xmlns:xlink="http://www.w3.org/1999/xlink" x="0px" y="0px"
	 viewBox="0 0 340.16 90.99" style="enable-background:new 0 0 340.16 90.99;" xml:space="preserve">
<style type="text/css">
	.st0{fill:#4CAF50;}
	.st1{fill:#1B4332;}
	.st2{filter:url(#Adobe_OpacityMaskFilter);}
	.st3{clip-path:url(#SVGID_2_);fill:url(#SVGID_4_);}
	.st4{clip-path:url(#SVGID_2_);mask:url(#SVGID_3_);fill:url(#SVGID_5_);}
</style>
<g>
	<path class="st0" d="M0.72,48.58C3.84,30.91,17.2,20.91,33.27,20.91c5.52,0,12.23,1.44,16.79,3.76l-5.28,10.32
		c-2.72-1.36-7.36-2.88-12.15-2.88c-8.16,0-15.75,5.36-17.91,16.47c-2.4,12.71,2.08,18.31,10.16,18.31c2.32,0,4.72-0.48,6.96-1.28
		l1.92-9.2h-9.44l1.44-9.76h20.23l-4.48,26.23c-5.52,2.96-12.24,5.28-18.31,5.28C6.32,78.17-2.71,67.61,0.72,48.58z"/>
	<path class="st0" d="M46.67,77.37l6.32-35.98h11.2l-0.4,5.76h0.24c2.56-3.76,8.16-7.04,14.07-6.48l-1.6,11.27
		c-1.04-0.24-2-0.32-2.96-0.32c-6.4,0-10.32,4.96-11.52,10.16l-3.12,15.59H46.67z"/>
	<path class="st0" d="M76.95,59.37c2.16-12.39,11.44-18.79,20.79-18.79c9.44,0,16.55,6.4,14.39,18.79
		c-2.24,12.4-11.52,18.79-20.95,18.79C81.82,78.17,74.71,71.77,76.95,59.37z M92.54,68.73c3.6,0,5.84-3.52,6.96-9.36
		c1.2-5.84,0.48-9.44-3.12-9.44c-3.52,0-5.76,3.6-6.88,9.44C88.3,65.21,89.02,68.73,92.54,68.73z"/>
	<path class="st0" d="M172.54,15.49l-22.39,48.28h-0.24l-0.88-21.91h-11.52l-9.04,21.91h-0.11l-5.67,13.59h9.23l8.31-18.94h0.17
		l0.24,18.94h14.39l29.5-61.87H172.54z"/>
	<polygon class="st0" points="128.36,63.77 122.69,77.36 118.41,77.36 113.61,41.38 127.11,41.38 128.24,63.77 	"/>
	<path class="st0" d="M172.54,15.49l-22.39,48.28h-0.24l-0.88-21.91h-11.52l-9.15,21.91l-5.67,13.59L117,90.99h9.02l14.2-32.58h0.17
		l0.24,18.94h14.39l29.5-61.87H172.54z"/>
	<path class="st1" d="M170.38,15.49l-22.39,48.28h-0.24l-0.88-21.91h-11.52l-9.15,21.91l-5.67,13.59l-5.69,13.63h9.02l14.2-32.58
		h0.17l0.24,18.94h14.39l29.5-61.87H170.38z"/>
	<g>
		<defs>
			<path id="SVGID_1_" d="M170.38,15.49l-22.39,48.28h-0.24l-0.88-21.91h-11.52l-9.15,21.91l-5.67,13.59l-5.69,13.63h9.02
				l14.2-32.58h0.17l0.24,18.94h14.39l29.5-61.87H170.38z"/>
		</defs>
		<clipPath id="SVGID_2_">
			<use xlink:href="#SVGID_1_"  style="overflow:visible;"/>
		</clipPath>
		<defs>
			<filter id="Adobe_OpacityMaskFilter" filterUnits="userSpaceOnUse" x="155.2" y="21.44" width="27.17" height="37.48">
				<feColorMatrix  type="matrix" values="1 0 0 0 0  0 1 0 0 0  0 0 1 0 0  0 0 0 1 0"/>
			</filter>
		</defs>
		<mask maskUnits="userSpaceOnUse" x="155.2" y="21.44" width="27.17" height="37.48" id="SVGID_3_">
			<g class="st2">
				
					<linearGradient id="SVGID_4_" gradientUnits="userSpaceOnUse" x1="172.3177" y1="14.4823" x2="150.3708" y2="70.5537" gradientTransform="matrix(0.9986 0.0534 -0.0534 0.9986 5.7911 -6.3571)">
					<stop  offset="0.0974" style="stop-color:#000000"/>
					<stop  offset="0.1082" style="stop-color:#101010"/>
					<stop  offset="0.1547" style="stop-color:#4E4E4E"/>
					<stop  offset="0.2008" style="stop-color:#848484"/>
					<stop  offset="0.2453" style="stop-color:#B0B0B0"/>
					<stop  offset="0.2879" style="stop-color:#D2D2D2"/>
					<stop  offset="0.3281" style="stop-color:#EBEBEB"/>
					<stop  offset="0.3649" style="stop-color:#FAFAFA"/>
					<stop  offset="0.3953" style="stop-color:#FFFFFF"/>
					<stop  offset="0.4298" style="stop-color:#ECECEC"/>
					<stop  offset="0.4997" style="stop-color:#BBBBBB"/>
					<stop  offset="0.5988" style="stop-color:#6D6D6D"/>
					<stop  offset="0.7222" style="stop-color:#020202"/>
					<stop  offset="0.7242" style="stop-color:#000000"/>
				</linearGradient>
				<polygon class="st3" points="190.13,56.22 144.7,53.79 146.69,16.59 192.12,19.02 				"/>
			</g>
		</mask>
		
			<linearGradient id="SVGID_5_" gradientUnits="userSpaceOnUse" x1="150.4362" y1="32.1954" x2="164.6801" y2="38.1297" gradientTransform="matrix(0.9986 0.0534 -0.0534 0.9986 5.7911 -6.3571)">
			<stop  offset="0" style="stop-color:#FFFFFF"/>
			<stop  offset="0.0178" style="stop-color:#F8F9F8"/>
			<stop  offset="0.1691" style="stop-color:#BEC9C4"/>
			<stop  offset="0.3203" style="stop-color:#8CA098"/>
			<stop  offset="0.4683" style="stop-color:#637F73"/>
			<stop  offset="0.6124" style="stop-color:#446557"/>
			<stop  offset="0.7514" style="stop-color:#2D5242"/>
			<stop  offset="0.8831" style="stop-color:#204736"/>
			<stop  offset="1" style="stop-color:#1B4332"/>
		</linearGradient>
		<path class="st4" d="M173.15,21.44l-3.09,6.41l-6.39,13.27l-8.47,17.32l9.01,0.48l17.99-35.78l0.17,0.01L173.15,21.44z"/>
	</g>
	<path class="st0" d="M173.82,65.45l3.04-15.67h-4.32l1.04-7.04l5.44-1.36l4.72-11.44h8.56l-1.92,11.44h8.71l-1.28,8.4h-8.72
		l-2.72,13.19c-1.04,5.92,0.8,7.12,3.12,7.12c1.68,0,3.12-0.48,3.92-0.88l-0.96,6.48c-1.36,1.28-6.8,2.16-9.2,2.16
		C176.86,77.85,172.22,74.65,173.82,65.45z"/>
	<path class="st0" d="M196.21,77.37l10.56-59.97H219l-5.04,27.75h0.24c2.64-2.56,6.32-4.56,10.32-4.56c9.52,0,12.55,5.76,10.4,18.23
		l-3.28,18.55H219.4l3.04-17.51c1.12-5.12,0.48-8.4-3.52-8.4c-3.36,0-5.84,3.28-7.12,7.84l-3.36,18.07H196.21z"/>
	<path class="st1" d="M237.54,77.37l9.84-55.58c6-0.4,12.15-0.8,18.07-0.8c13.44,0,19.83,6.56,17.75,18.39
		c-2.24,12.79-13.43,19.91-23.51,19.99c-1.84,0-3.68-0.16-5.6-0.32l-3.28,18.31H237.54z M256.01,48.1c1.36,0.16,2.64,0.32,4.24,0.32
		c5.12,0,8.48-3.84,9.28-9.04c0.56-3.68-1.2-7.44-6.32-7.44c-1.6,0-2.96,0.08-4.4,0.16L256.01,48.1z"/>
	<path class="st1" d="M277.77,61.53c2.24-12.95,13.43-20.87,24.79-20.87c6.56,0,12.16,1.2,15.43,1.76l-4.64,25.43
		c-0.48,3.28-0.96,7.68-0.56,9.52h-12.07c-0.16-0.8,0.24-3.52,0.4-4.32h-0.24c-1.84,2.24-6.4,5.04-11.28,5.04
		C282.09,78.09,275.69,73.45,277.77,61.53z M294.72,68.97c3.28,0,7.04-3.76,7.92-8.72l2.08-10.16c-0.72-0.24-1.92-0.56-3.52-0.56
		c-4.72,0-9.12,5.36-10.24,10.8C289.85,65.77,291.13,68.97,294.72,68.97z"/>
	<path class="st1" d="M327.92,17.39h12.24L329.6,77.37h-12.24L327.92,17.39z"/>
	<polygon class="st1" points="161.61,14.37 176.63,16.27 187.29,27.02 184.65,0 	"/>
</g>
</svg>
